<svg xmlns="http://www.w3.org/2000/svg" viewBox="0 0 187.211 187.211" fill="#8dc02d">
  <path d="M112.387 34.959c5.544 5.66 10.226 11.869 13.926 18.376c8.595 -5.006 18.726 -8.378 30.015 -9.17c-15.226 11.615 -3.534 60.52 -25.948 75.203l-.407 .65c48.627 .856 37.054 -77.567 57.239 -95.069c-30.5 -13.645 -57.459 -6.138 -74.825 10.01z"/>
  <path d="M76.293 74.053c17.129 17.753 24.288 97.465 24.288 97.465l13.929 -14.327c-.001 -.007 -10.197 -69.44 -38.217 -83.138z"/>
  <path d="M139.648 56.843c-5.497 2.684 -9.836 8.766 -13.223 15.64C114.196 32.423 65.175 -3.275 0 27.03c42.076 6.773 13.479 108.309 82.883 109.852c-23.782 -11.508 -10.435 -51.427 -27.461 -77.47c46.946 -7.438 66.788 41.946 60.204 67.717c10.923 -11.278 15.007 -26.279 13.465 -41.612c2.394 -11.633 5.869 -23.824 10.557 -28.674z"/>
</svg>
